Coordinates
version=1
nRows=20
nColumns=33
inDegrees=yes

Units are S.I. units (second, meters, Newtons, ...)
Angles are in degrees.

endheader
time	ground_thorax_rot_x	ground_thorax_rot_y	ground_thorax_rot_z	ground_thorax_tx	ground_thorax_ty	ground_thorax_tz	clav_prot_r	clav_elev_r	scapula_abduction_r	scapula_elevation_r	scapula_upward_rot_r	scapula_winging_r	shoulder_elv_r	plane_of_elev_r	axial_rot_r	elbow_flexion_r	pro_sup_r	wrist_flex_r	wrist_dev_r	clav_prot_l	clav_elev_l	scapula_abduction_l	scapula_elevation_l	scapula_upward_rot_l	scapula_winging_l	shoulder_elv_l	plane_of_elev_l	axial_rot_l	elbow_flexion_l	pro_sup_l	wrist_flex_l	wrist_dev_l	
4.8100	36.373618	7.545860	17.435041	-191.274506	818.703676	-2.529431	16.620129	38.393532	41.261832	44.999999	-44.585111	3153.889160	-1728.588767	33.468497	49.349448	1825.156631	157.588966	11.878259	4.362223	9.103445	-45.000000	-41.171245	45.000000	-26.970828	-2782.611674	-455.143956	137.056815	180.000000	1807.352164	16.669663	10.815956	-20.707821	
4.8200	36.322038	7.321270	17.325151	-187.107627	818.411539	-2.623729	16.708434	38.486361	41.522444	44.999998	-44.279695	3154.054357	-1728.651954	33.550925	48.742565	1825.142252	158.712887	11.756442	4.317049	9.039442	-45.000000	-41.536748	45.000000	-25.824878	-2782.755191	-455.320439	137.091926	180.000000	1807.308355	16.672771	11.001421	-20.544146	
4.8300	36.275772	7.080923	17.179227	-182.771207	818.007902	-2.736597	16.789759	38.606499	41.772278	44.999996	-43.838479	3154.237207	-1728.748084	33.609734	48.129803	1825.117184	159.847395	11.635920	4.244881	8.966637	-45.000000	-41.919531	45.000000	-24.623430	-2782.908820	-455.521989	137.131588	180.000000	1807.255830	16.806377	11.164609	-20.385742	
4.8400	36.235375	6.817589	16.993625	-178.279708	817.490793	-2.860673	16.864365	38.750366	42.017667	44.999992	-43.279748	3154.438105	-1728.872331	33.650564	47.517310	1825.087599	161.007443	11.515834	4.149433	8.887521	-45.000000	-42.319151	45.000000	-23.363548	-2783.066538	-455.746760	137.171129	180.000000	1807.191269	17.067135	11.304806	-20.233614	
4.8500	36.201337	6.530885	16.766806	-173.651958	816.859897	-2.986124	16.935617	38.914017	42.261139	44.999986	-42.617884	3154.653696	-1729.021139	33.677253	46.934551	1825.057856	162.231167	11.394485	4.040320	8.802619	-45.000000	-42.738727	45.000000	-22.053774	-2783.226802	-455.995827	137.209587	180.000000	1807.114128	17.450621	11.419933	-20.089545	
4.8600	36.172963	6.219882	16.501660	-168.905959	816.114017	-3.103957	17.004488	39.087416	42.509012	44.999975	-41.890596	3154.881537	-1729.187523	33.699991	46.412080	1825.033249	163.574036	11.267836	3.933255	8.713991	-45.000000	-43.176128	45.000000	-20.705201	-2783.384080	-456.265682	137.241934	180.000000	1807.024764	17.950857	11.511925	-19.955637	
4.8700	36.151054	5.890641	16.202189	-164.056300	815.250383	-3.207573	17.067807	39.266402	42.763495	44.999956	-41.129221	3155.114656	-1729.368273	33.729221	45.976829	1825.009552	165.101123	11.135051	3.833781	8.617572	-45.000000	-43.625906	45.000000	-19.340021	-2783.546163	-456.555575	137.272539	180.000000	1806.928723	18.557919	11.579409	-19.834971	
4.8800	36.135903	5.560748	15.890195	-159.110601	814.263214	-3.295580	17.125382	39.454455	43.030032	44.999920	-40.359651	3155.347129	-1729.567582	33.766172	45.674429	1824.981668	166.815504	10.998104	3.740963	8.517563	-45.000000	-44.053503	45.000000	-18.028629	-2783.735424	-456.853402	137.304030	180.000000	1806.834827	19.244178	11.616138	-19.727652	
4.8900	36.137142	5.222078	15.552820	-154.072496	813.146031	-3.369981	17.170502	39.651150	43.313758	44.999857	-39.567611	3155.578881	-1729.789770	33.804950	45.477616	1824.937707	168.727036	10.859969	3.644647	8.389827	-45.000000	-44.422175	45.000000	-16.796654	-2783.977623	-457.152847	137.333179	180.000000	1806.742337	19.991169	11.632152	-19.633833	
4.9000	36.156563	4.899326	15.216936	-148.946704	811.894654	-3.434332	17.222027	39.863826	43.617590	44.999744	-38.760104	3155.807272	-1730.041061	33.835359	45.414746	1824.869943	170.737791	10.725729	3.543245	8.248560	-45.000000	-44.700061	45.000000	-15.727850	-2784.301101	-457.443110	137.367515	180.000000	1806.656385	20.752816	11.623196	-19.549169	
4.9100	36.198628	4.594517	14.878447	-143.741208	810.509379	-3.490739	17.275429	40.095271	43.935982	44.999542	-37.935939	3156.029862	-1730.322451	33.862775	45.439538	1824.768861	172.759681	10.603135	3.421288	8.095467	-45.000000	-44.881757	45.000000	-14.839192	-2784.714562	-457.721841	137.407091	180.000000	1806.576214	21.493852	11.591939	-19.469619	
4.9200	36.254455	4.338338	14.567324	-138.466349	808.995287	-3.539468	17.341007	40.344983	44.247294	44.999180	-37.110465	3156.259480	-1730.627320	33.881974	45.542899	1824.635496	174.642100	10.498259	3.276090	7.954543	-45.000000	-44.971574	45.000000	-14.173440	-2785.214405	-457.986086	137.454457	180.000000	1806.504257	22.167865	11.536376	-19.389289	
4.9300	36.322757	4.119665	14.262459	-133.129554	807.361095	-3.578641	17.397004	40.596957	44.524704	44.998531	-36.278268	3156.512755	-1730.940279	33.899656	45.640892	1824.470859	176.320352	10.414315	3.104205	7.817366	-45.000000	-45.000000	45.000000	-13.652408	-2785.770247	-458.246255	137.497521	180.000000	1806.421195	22.769143	11.476797	-19.305825	
4.9400	36.391272	3.953236	13.979832	-127.737126	805.620217	-3.605257	17.448705	40.840121	44.741821	44.997371	-35.454257	3156.806277	-1731.248001	33.916711	45.721907	1824.280216	177.690538	10.354644	2.917287	7.695384	-45.000000	-45.000000	45.000000	-13.236825	-2786.350534	-458.512433	137.537582	180.000000	1806.317088	23.287201	11.418805	-19.218241	
4.9500	36.459669	3.818902	13.699093	-122.293235	803.790484	-3.616483	17.474845	41.062442	44.887292	44.995282	-34.631570	3157.142034	-1731.545298	33.941434	45.730237	1824.063160	178.702715	10.324207	2.717138	7.568658	-45.000000	-45.000000	45.000000	-12.823809	-2786.921135	-458.799529	137.568376	180.000000	1806.169070	23.743143	11.375954	-19.128527	
4.9600	36.522697	3.708451	13.422939	-116.808864	801.897144	-3.610405	17.479277	41.256282	44.964327	44.991571	-33.810901	3157.527616	-1731.825573	33.965325	45.632261	1823.817264	179.242900	10.329063	2.516427	7.413859	-45.000000	-45.000000	45.000000	-12.379172	-2787.467714	-459.112982	137.588822	180.000000	1805.966195	24.152885	11.352825	-19.039122	
4.9700	36.585154	3.604818	13.140881	-111.306561	799.973851	-3.586017	17.456694	41.423605	44.993944	44.984841	-32.994624	3157.949152	-1732.090031	33.988086	45.398298	1823.534083	179.172403	10.378295	2.328994	7.220957	-45.000000	-45.000000	45.000000	-11.858418	-2787.986202	-459.455085	137.605342	180.000000	1805.696198	24.539404	11.350649	-18.952484	
4.9800	36.647261	3.507195	12.858885	-105.830513	798.064669	-3.542560	17.428347	41.570140	45.000000	44.973013	-32.197761	3158.393127	-1732.336134	34.006942	44.973349	1823.192335	178.142532	10.489146	2.190988	7.002991	-45.000000	-45.000000	45.000000	-11.282508	-2788.480803	-459.816100	137.627502	180.000000	1805.372162	24.904225	11.357958	-18.870586	
4.9900	36.712984	3.418985	12.574407	-100.440429	796.219292	-3.480009	17.382961	41.713015	45.000000	44.951193	-31.414770	3158.823960	-1732.576714	34.029064	44.309861	1822.762849	175.724207	10.686875	2.131929	6.785548	-45.000000	-45.000000	45.000000	-10.695521	-2788.965339	-460.178488	137.661476	180.000000	1805.019359	25.239999	11.353365	-18.794279	
5.0000	36.783283	3.335247	12.274850	-95.204782	794.487781	-3.399376	17.318034	41.843846	45.000000	44.913872	-30.647071	3159.230579	-1732.794898	34.065647	43.094311	1822.146719	170.740179	11.026002	2.261202	6.577700	-45.000000	-45.000000	45.000000	-10.131886	-2789.443622	-460.523610	137.699056	180.000000	1804.668062	25.552851	11.327896	-18.727180	
